<svg width="84" height="16" viewBox="0 0 84 16" fill="none" xmlns="http://www.w3.org/2000/svg">
<path d="M0.928 12V0.48H9.28V2.736H3.456V5.056H8.976V7.2H3.456V12H0.928ZM12.6673 8.528C12.6673 9.44 13.0353 10.176 14.1233 10.176C14.9233 10.176 15.8353 9.616 15.8353 8.208H15.8513V3.68H18.1873V12H15.9153V10.848C15.3393 11.616 14.4753 12.192 13.2913 12.192C11.4673 12.192 10.3313 11.008 10.3313 8.8V3.68H12.6673V8.528ZM25.3044 7.152C25.3044 6.24 24.9364 5.504 23.8484 5.504C23.0484 5.504 22.1364 6.064 22.1364 7.472H22.1204V12H19.7844V3.68H22.0564V4.832C22.6324 4.064 23.4964 3.488 24.6804 3.488C26.5044 3.488 27.6404 4.672 27.6404 6.88V12H25.3044V7.152ZM37.3655 12H35.0935V10.944C34.5495 11.728 33.7175 12.192 32.5495 12.192C30.1655 12.192 28.8855 10.32 28.8855 7.84C28.8855 5.36 30.1655 3.488 32.5495 3.488C33.6695 3.488 34.4855 3.92 35.0295 4.656V0.48H37.3655V12ZM31.2695 7.84C31.2695 9.312 31.8455 10.288 33.1575 10.288C34.4855 10.288 35.0615 9.312 35.0615 7.84C35.0615 6.368 34.4855 5.392 33.1575 5.392C31.8455 5.392 31.2695 6.368 31.2695 7.84ZM43.5319 12.192C40.4759 12.192 38.5719 10.704 38.5559 8.144H41.0199C41.0519 9.792 42.2679 10.176 43.6279 10.176C44.8759 10.176 45.7239 9.68 45.7239 8.768C45.7239 8.064 45.3399 7.632 43.0199 7.232C40.0919 6.736 38.8119 5.68 38.8119 3.6C38.8119 1.68 40.5079 0.287999 43.2439 0.287999C46.2999 0.287999 47.9159 1.76 48.0119 4.176H45.5799C45.5159 2.896 44.7799 2.304 43.2439 2.304C42.1239 2.304 41.3879 2.768 41.3879 3.52C41.3879 4.24 41.7719 4.704 43.9159 5.072C47.3239 5.648 48.3319 6.736 48.3319 8.624C48.3319 10.976 46.2839 12.192 43.5319 12.192ZM49.4875 3.68H51.7595V4.736C52.3035 3.952 53.1355 3.488 54.3035 3.488C56.6875 3.488 57.9675 5.36 57.9675 7.84C57.9675 10.32 56.6875 12.192 54.3035 12.192C53.1835 12.192 52.3675 11.76 51.8235 11.024V15.2H49.4875V3.68ZM51.7915 7.84C51.7915 9.312 52.3675 10.288 53.6955 10.288C55.0075 10.288 55.5835 9.312 55.5835 7.84C55.5835 6.368 55.0075 5.392 53.6955 5.392C52.3675 5.392 51.7915 6.368 51.7915 7.84ZM64.4699 12V11.104C63.7659 11.92 62.9019 12.192 61.8459 12.192C60.0539 12.192 58.8059 11.296 58.8059 9.648C58.8059 8.16 59.7979 7.472 62.0859 7.072L64.4059 6.672V6.288C64.4059 5.664 64.0859 5.232 63.0459 5.232C62.1659 5.232 61.5579 5.632 61.5419 6.368H59.2059C59.2379 4.416 60.9019 3.488 63.0299 3.488C65.4939 3.488 66.6939 4.464 66.6939 6.016V12H64.4699ZM61.1899 9.568C61.1899 10.16 61.6219 10.544 62.4699 10.544C63.4779 10.544 64.4059 10.048 64.4059 8.816V8.144L62.5499 8.512C61.6539 8.688 61.1899 8.896 61.1899 9.568ZM68.0969 12V3.68H70.3689V5.216C70.8809 4.064 71.7289 3.584 72.8169 3.584H73.4889V5.728H72.7049C71.2969 5.728 70.4329 6.32 70.4329 8.192V12H68.0969ZM74.6906 12V0.48H77.0266V6.928L80.1626 3.68H82.8986L79.7786 6.848L83.0906 12H80.3706L78.1626 8.48L77.0266 9.632V12H74.6906Z" fill="url(#paint0_linear_195_22406)"/>
<defs>
<linearGradient id="paint0_linear_195_22406" x1="-0.921309" y1="-0.375027" x2="63.0031" y2="-33.8837" gradientUnits="userSpaceOnUse">
<stop stop-color="#ECDCF5"/>
<stop offset="0.317708" stop-color="#AE9EF4"/>
<stop offset="0.645833" stop-color="#61B0BC"/>
<stop offset="0.848958" stop-color="#A2D4C9"/>
<stop offset="1" stop-color="#D6D7E8"/>
</linearGradient>
</defs>
</svg>
